<svg width="100%" height="100%" color="white" version="1.1" id="Layer_1" xmlns="http://www.w3.org/2000/svg" xmlns:xlink="http://www.w3.org/1999/xlink" x="0px" y="0px"
	 viewBox="0 0 431.7 358.8" style="enable-background:new 0 0 431.7 358.8;" xml:space="preserve">
<g>
	<g>
		<path d="M146,44.3h43l-25.4,132.7c-9.8,51-31.6,71.6-77.3,71.6c-12.5,0-26.5-2.1-33.1-4.8l8.4-36.7c6.3,2.1,14.3,3.6,23.9,3.6
			c18.8,0,30.7-9.2,36.4-39.1L146,44.3z"/>
	</g>
	<g>
		<path d="M225.9,47.9c13.1-3.3,33.1-5.1,52.5-5.1c18.2,0,38.8,3,53.4,13.1c13.7,9.2,21.8,23.6,21.8,43c0,25.1-11.6,44.4-27.1,56.4
			c-16.4,12.8-40,18.8-64.4,18.8c-7.2,0-13.1-0.9-17.6-1.2l-13.7,72.5h-42.1L225.9,47.9z M251,137.7c4.5,0.9,9.2,1.5,16.7,1.5
			c25.7,0,42.7-16.4,42.7-36.7c0-19.1-14-25.4-30.4-25.4c-8.1,0-14,0.6-17.6,1.2L251,137.7z"/>
	</g>
</g>
<g>
	<g>
		<path d="M41.5,316.9c-1,0.4-2.8,0.8-4.3,0.8c-2.1,0-4.1-0.6-5.7-2.3c-1.8-1.9-2.9-5.2-2.9-9.7c0-9.4,4.8-12.6,9.1-12.6
			c1.5,0,2.7,0.3,3.4,0.7l-0.6,2.4c-0.6-0.3-1.5-0.6-2.8-0.6c-3,0-6.3,2.4-6.3,9.9c0,7.5,2.8,9.9,5.7,9.9c0.9,0,1.5-0.1,1.7-0.3
			v-7.9h-3.1v-2.3h5.7V316.9z"/>
	</g>
	<g>
		<path d="M58.2,310.2l-1.6,7.2H54l5.5-24.2h3.1l5.4,24.2h-2.7l-1.6-7.2H58.2z M63.2,308l-1.3-6.1c-0.4-1.7-0.7-3.7-1-5.5h-0.1
			c-0.3,1.8-0.6,3.9-1,5.5l-1.3,6.1H63.2z"/>
	</g>
	<g>
		<path d="M81.7,295.8h-4.4v-2.5h11.6v2.5h-4.4v21.7h-2.8V295.8z"/>
	</g>
	<g>
		<path d="M100.6,314.3c0.8,0.5,2.3,1,3.4,1c2.5,0,4.1-1.7,4.1-4.1c0-2.2-1.3-3.6-3.2-5c-1.9-1.3-4.6-3.6-4.6-6.7
			c0-3.7,2.5-6.4,6.4-6.4c1.5,0,2.8,0.5,3.4,0.9l-0.6,2.4c-0.6-0.4-1.6-0.8-2.9-0.8c-2.4,0-3.5,1.8-3.5,3.4c0,2.4,1.3,3.3,3.6,5
			c2.9,2,4.2,4.3,4.2,7c0,4.2-2.9,6.8-6.8,6.8c-1.7,0-3.4-0.5-4.1-1L100.6,314.3z"/>
	</g>
	<g>
		<path d="M124.2,293.6c1.1-0.3,2.5-0.5,4-0.5c2.2,0,4.1,0.5,5.3,1.7c1,1,1.6,2.4,1.6,4.1c0,2.5-1.4,4.4-3.7,5.3v0.1
			c2.8,0.8,4.5,3,4.5,6.2c0,2-0.6,3.6-1.7,4.8c-1.4,1.5-3.6,2.2-6.4,2.2c-1.8,0-2.8-0.1-3.6-0.3V293.6z M126.9,303.5h1.3
			c2.3,0,4.2-1.7,4.2-4.3c0-2.2-1-3.9-4-3.9c-0.6,0-1.1,0.1-1.5,0.2V303.5z M126.9,315.3c0.3,0.1,0.8,0.1,1.4,0.1
			c2.8,0,4.7-1.7,4.7-4.8c0-3.3-2.3-4.9-4.9-5h-1.2V315.3z"/>
	</g>
	<g>
		<path d="M152.3,317.5v-10.2l-5.3-14h2.9l2.2,6.1c0.6,1.7,1.3,3.6,1.8,5.5h0.1c0.5-1.9,1.1-3.7,1.8-5.6l2-6h2.9l-5.5,13.9v10.3
			H152.3z"/>
	</g>
	<g>
		<path d="M200.5,317.5c-0.4-0.6-0.8-1.1-1.6-2.3c-1.3,1.7-3.3,2.5-5.2,2.5c-4,0-6-3.3-6-6.7c0-2.7,1.1-5,3.7-6.9V304
			c-1-1.7-1.8-3.4-1.8-5.4c0-2.9,1.8-5.6,5-5.6c2.2,0,4.3,1.7,4.3,5c0,2.4-1.1,4.3-4.2,6.5v0.1c0.9,1.5,2.7,4.3,4.6,6.9
			c1-2.2,1.4-5.3,1.4-7h2.5c-0.3,2.9-1,6.4-2.7,8.8c0.5,0.7,1.4,1.9,3.1,4.2H200.5z M197.6,313.4c-2-2.8-3.8-5.3-5.2-7.6
			c-1.1,1-2.2,2.7-2.2,4.9c0,2.5,1.3,4.8,3.8,4.8C195.5,315.6,196.8,314.8,197.6,313.4z M192.1,298.4c0,1.7,0.4,2.9,1.4,4.4
			c1.9-1.4,2.9-2.9,2.9-4.8c0-1.5-0.5-3.1-2.1-3.1C192.8,295,192.1,296.5,192.1,298.4z"/>
	</g>
	<g>
		<path d="M232.1,317.5v-24.2h2.6l4.5,11.3c1,2.6,2.3,5.8,3.1,8.4h0.1c-0.2-3.8-0.3-6.9-0.3-11.1v-8.6h2.5v24.2h-2.6l-4.6-11.6
			c-1-2.4-2-5.2-2.9-8.2h-0.1c0.2,3.2,0.3,6.3,0.3,11.5v8.4H232.1z"/>
	</g>
	<g>
		<path d="M267.6,306h-6.1v9.1h6.9v2.4h-9.7v-24.2h9.2v2.4h-6.5v8h6.1V306z"/>
	</g>
	<g>
		<path d="M284.4,295.8H280v-2.5h11.6v2.5h-4.4v21.7h-2.8V295.8z"/>
	</g>
	<g>
		<path d="M304.3,293.3h2.8v21.9h6.8v2.3h-9.5V293.3z"/>
	</g>
	<g>
		<path d="M329.5,293.3v24.2h-2.8v-24.2H329.5z"/>
	</g>
	<g>
		<path d="M343.9,293.3h9.2v2.4h-6.5v8.5h6v2.3h-6v11h-2.8V293.3z"/>
	</g>
	<g>
		<path d="M369.8,317.5v-10.2l-5.3-14h2.9l2.2,6.1c0.6,1.7,1.3,3.6,1.8,5.5h0.1c0.5-1.9,1.1-3.7,1.8-5.6l2-6h2.9l-5.5,13.9v10.3
			H369.8z"/>
	</g>
</g>
<g>
	<rect x="28.9" y="269" width="350.7" height="2"/>
</g>
</svg>