<svg id="Layer_1" data-name="Layer 1" xmlns="http://www.w3.org/2000/svg" viewBox="0 0 520.36 407.69"><defs><style>.cls-1{fill:#fff;}</style></defs><title>logo-jp</title><path class="cls-1" d="M216.45,174.71h63.75L242.54,371.44C228,447.05,195.69,477.59,127.94,477.59c-18.53,0-39.29-3.11-49.07-7.12l12.45-54.41a112.19,112.19,0,0,0,35.43,5.34c27.87,0,45.51-13.64,54-58Z" transform="translate(-42.4 -172.49)"/><path class="cls-1" d="M334.9,180c19.42-4.89,49.07-7.56,77.83-7.56,27,0,57.52,4.45,79.17,19.42,20.31,13.64,32.32,35,32.32,63.75,0,37.21-17.2,65.82-40.18,83.61-24.31,19-59.3,27.87-95.47,27.87-10.67,0-19.42-1.33-26.09-1.78L342.16,472.85H279.75Zm37.21,133.13a117.6,117.6,0,0,0,24.76,2.22c38.1,0,63.3-24.31,63.3-54.41,0-28.32-20.76-37.66-45.07-37.66A164.17,164.17,0,0,0,389,225.12Z" transform="translate(-42.4 -172.49)"/><path class="cls-1" d="M61.52,578.85A19.54,19.54,0,0,1,55.15,580a11.07,11.07,0,0,1-8.45-3.41c-2.67-2.82-4.3-7.71-4.3-14.38,0-13.94,7.12-18.68,13.49-18.68a10.68,10.68,0,0,1,5,1L60,548.16a9.09,9.09,0,0,0-4.15-.89c-4.45,0-9.34,3.56-9.34,14.68S50.7,576.62,55,576.62a4.35,4.35,0,0,0,2.52-.44V564.46h-4.6v-3.41h8.45v17.79Z" transform="translate(-42.4 -172.49)"/><path class="cls-1" d="M86.28,568.91l-2.37,10.67H80.06l8.15-35.88h4.6l8,35.88h-4l-2.37-10.67Zm7.41-3.26-1.93-9c-.59-2.52-1-5.49-1.48-8.15h-.15c-.44,2.67-.89,5.78-1.48,8.15l-1.93,9Z" transform="translate(-42.4 -172.49)"/><path class="cls-1" d="M121.12,547.56H114.6v-3.71h17.2v3.71h-6.52v32.17h-4.15V547.56Z" transform="translate(-42.4 -172.49)"/><path class="cls-1" d="M149.14,575a11.15,11.15,0,0,0,5,1.48,5.76,5.76,0,0,0,6.08-6.08c0-3.26-1.93-5.34-4.74-7.41s-6.82-5.34-6.82-9.93c0-5.49,3.71-9.49,9.49-9.49a9.82,9.82,0,0,1,5,1.33l-.89,3.56a7.83,7.83,0,0,0-4.3-1.19,4.93,4.93,0,0,0-5.19,5c0,3.56,1.93,4.89,5.34,7.41,4.3,3,6.23,6.37,6.23,10.38,0,6.23-4.3,10.08-10.08,10.08a12.11,12.11,0,0,1-6.08-1.48Z" transform="translate(-42.4 -172.49)"/><path class="cls-1" d="M184.13,544.3a23.12,23.12,0,0,1,5.93-.74c3.26,0,6.08.74,7.86,2.52a8.38,8.38,0,0,1,2.37,6.08A8.15,8.15,0,0,1,194.8,560v.15c4.15,1.19,6.67,4.45,6.67,9.19a10.16,10.16,0,0,1-2.52,7.12c-2.08,2.22-5.34,3.26-9.49,3.26a22,22,0,0,1-5.34-.44v-35Zm4,14.68h1.93a6.12,6.12,0,0,0,6.23-6.37c0-3.26-1.48-5.78-5.93-5.78a9,9,0,0,0-2.22.3V559Zm0,17.49a7.88,7.88,0,0,0,2.08.15c4.15,0,7-2.52,7-7.12,0-4.89-3.41-7.26-7.26-7.41h-1.78v14.38Z" transform="translate(-42.4 -172.49)"/><path class="cls-1" d="M225.79,579.73V564.61l-7.86-20.76h4.3l3.26,9c.89,2.52,1.93,5.34,2.67,8.15h.15c.74-2.82,1.63-5.49,2.67-8.3l3-8.9h4.3l-8.15,20.61v15.27h-4.3Z" transform="translate(-42.4 -172.49)"/><path class="cls-1" d="M297.24,579.73c-.59-.89-1.19-1.63-2.37-3.41a9.67,9.67,0,0,1-7.71,3.71c-5.93,0-8.9-4.89-8.9-9.93,0-4,1.63-7.41,5.49-10.23v-.15c-1.48-2.52-2.67-5-2.67-8,0-4.3,2.67-8.3,7.41-8.3,3.26,0,6.37,2.52,6.37,7.41,0,3.56-1.63,6.37-6.23,9.64v.15c1.33,2.22,4,6.37,6.82,10.23a28.63,28.63,0,0,0,2.08-10.38h3.71c-.44,4.3-1.48,9.49-4,13,.74,1,2.08,2.82,4.6,6.23Zm-4.3-6.08c-3-4.15-5.63-7.86-7.71-11.27a9.88,9.88,0,0,0-3.26,7.26c0,3.71,1.93,7.12,5.63,7.12A5.66,5.66,0,0,0,292.94,573.66Zm-8.15-22.24a10.67,10.67,0,0,0,2.08,6.52c2.82-2.08,4.3-4.3,4.3-7.12,0-2.22-.74-4.6-3.11-4.6S284.79,548.6,284.79,551.42Z" transform="translate(-42.4 -172.49)"/><path class="cls-1" d="M344.09,579.73V543.86h3.85l6.67,16.75c1.48,3.85,3.41,8.6,4.6,12.45h.15c-.3-5.63-.44-10.23-.44-16.46V543.86h3.71v35.88h-3.85l-6.82-17.2a126.83,126.83,0,0,1-4.3-12.16h-.15c.3,4.74.44,9.34.44,17v12.45h-3.85Z" transform="translate(-42.4 -172.49)"/><path class="cls-1" d="M396.72,562.69h-9v13.49h10.23v3.56H383.53V543.86h13.64v3.56h-9.64v11.86h9v3.41Z" transform="translate(-42.4 -172.49)"/><path class="cls-1" d="M421.63,547.56H415.1v-3.71h17.2v3.71h-6.52v32.17h-4.15V547.56Z" transform="translate(-42.4 -172.49)"/><path class="cls-1" d="M451.13,543.86h4.15v32.47h10.08v3.41H451.28V543.86Z" transform="translate(-42.4 -172.49)"/><path class="cls-1" d="M488.49,543.86v35.88h-4.15V543.86Z" transform="translate(-42.4 -172.49)"/><path class="cls-1" d="M509.84,543.86h13.64v3.56h-9.64V560h8.9v3.41h-8.9v16.31h-4.15V543.86Z" transform="translate(-42.4 -172.49)"/><path class="cls-1" d="M548.23,579.73V564.61l-7.86-20.76h4.3l3.26,9c.89,2.52,1.93,5.34,2.67,8.15h.15c.74-2.82,1.63-5.49,2.67-8.3l3-8.9h4.3l-8.15,20.61v15.27h-4.3Z" transform="translate(-42.4 -172.49)"/><rect class="cls-1" x="0.44" y="335.34" width="519.92" height="2.97"/></svg>